<svg width="48" height="37" viewBox="0 0 48 37" fill="none" xmlns="http://www.w3.org/2000/svg">
<path d="M0.666664 17.4978V36.9181L47.3333 19.9564V0.536133L0.666664 17.4978ZM16.2222 27.3798L12.3333 28.7926V27.8216L11.0374 28.2926V27.3216L9.74041 27.7925V28.7635L8.44444 29.2364V30.2074L4.55555 31.6212V19.969L8.44444 18.5562V25.3533L9.74041 24.8824V23.9114L11.0374 23.4394V24.4105L12.3333 23.9376V17.1405L16.2222 15.7267V27.3798ZM29.8333 14.6595L25.9444 16.0743V23.8424L22.0555 25.2582V17.49L18.1667 18.9029V15.0188L29.8333 10.7784V14.6595ZM43.4444 9.7161L35.6667 12.5418V14.4838L41.5 12.3641V16.2481L35.6667 18.3678V20.3099L31.7778 21.7227V10.0705L43.4444 5.82913V9.7161Z" fill="white"/>
</svg>
